<?xml version="1.0" encoding="UTF-8"?>
<!DOCTYPE svg PUBLIC "-//W3C//DTD SVG 1.1//EN" "http://www.w3.org/Graphics/SVG/1.1/DTD/svg11.dtd">
<svg xmlns="http://www.w3.org/2000/svg" version="1.1" width="999px" height="249px" style="shape-rendering:geometricPrecision; text-rendering:geometricPrecision; image-rendering:optimizeQuality; fill-rule:evenodd; clip-rule:evenodd" xmlns:xlink="http://www.w3.org/1999/xlink">
<g><path style="opacity:1" fill="#39657f" d="M 242.5,45.5 C 255.221,43.2568 263.221,48.2568 266.5,60.5C 263.693,73.4168 255.693,78.5835 242.5,76C 232.898,72.3754 229.398,65.542 232,55.5C 234.106,50.5573 237.606,47.224 242.5,45.5 Z"/></g>
<g><path style="opacity:1" fill="#f87217" d="M 852.5,212.5 C 849.223,212.784 846.057,212.451 843,211.5C 842.308,212.025 841.808,212.692 841.5,213.5C 836.833,213.833 832.167,214.167 827.5,214.5C 818.653,214.604 810.653,213.937 803.5,212.5C 801.214,212.405 799.214,211.738 797.5,210.5C 793.433,207.622 789.099,204.955 784.5,202.5C 784.5,201.5 784.5,200.5 784.5,199.5C 786.199,199.34 787.866,199.506 789.5,200C 791.279,202.893 793.612,204.06 796.5,203.5C 795.926,201.941 795.26,200.441 794.5,199C 790.256,198.571 786.256,197.404 782.5,195.5C 781.246,193.741 781.579,192.241 783.5,191C 781.517,189.886 779.85,188.386 778.5,186.5C 778.833,186.167 779.167,185.833 779.5,185.5C 780.611,186.611 781.945,187.278 783.5,187.5C 785.978,186.117 788.645,185.117 791.5,184.5C 795.227,186.554 799.227,187.554 803.5,187.5C 803.5,186.5 803.5,185.5 803.5,184.5C 805.747,184.085 807.914,183.418 810,182.5C 811.669,183.166 813.169,183.166 814.5,182.5C 815.167,183.167 815.833,183.833 816.5,184.5C 817.096,183.284 817.263,181.951 817,180.5C 818.745,179.044 820.578,177.711 822.5,176.5C 823.127,175.583 823.461,174.583 823.5,173.5C 823.5,173.167 823.5,172.833 823.5,172.5C 824.89,175.853 826.224,179.353 827.5,183C 835.833,183.333 844.167,183.667 852.5,184C 849.109,185.882 848.776,188.049 851.5,190.5C 852.974,189.564 853.974,188.23 854.5,186.5C 855.325,185.614 856.325,185.281 857.5,185.5C 857.5,187.5 857.5,189.5 857.5,191.5C 858.833,191.5 860.167,191.5 861.5,191.5C 861.167,189.5 860.833,187.5 860.5,185.5C 863.5,185.833 864.833,184.5 864.5,181.5C 862.076,181.808 859.743,181.474 857.5,180.5C 860.223,178.385 863.056,176.385 866,174.5C 869.789,175.825 873.623,176.992 877.5,178C 876.978,178.561 876.645,179.228 876.5,180C 877.719,182.001 879.053,183.834 880.5,185.5C 881.524,184.147 882.857,183.48 884.5,183.5C 884.328,181.508 884.995,179.842 886.5,178.5C 885.467,177.548 884.3,177.548 883,178.5C 879.716,177.246 879.716,175.913 883,174.5C 883.375,172 884.208,169.667 885.5,167.5C 884.787,165.224 884.287,162.891 884,160.5C 882.644,159.62 881.144,159.286 879.5,159.5C 879.948,155.276 878.281,153.609 874.5,154.5C 871.823,151.865 868.99,150.198 866,149.5C 865.333,148.5 865.333,147.5 866,146.5C 866.654,147.696 867.154,147.696 867.5,146.5C 866.833,145.5 866.167,144.5 865.5,143.5C 867.296,142.859 868.796,141.859 870,140.5C 872.333,141.833 874.667,141.833 877,140.5C 877.317,142.301 877.984,142.634 879,141.5C 880.486,144.74 879.653,147.574 876.5,150C 878.224,150.448 878.891,151.282 878.5,152.5C 880.639,150.065 882.305,146.732 883.5,142.5C 877.223,139.121 877.89,136.621 885.5,135C 887.645,133.182 887.645,131.682 885.5,130.5C 884.571,129.311 884.238,127.978 884.5,126.5C 880.958,126.38 877.458,126.714 874,127.5C 869.65,126.828 869.483,125.661 873.5,124C 877.533,123.65 881.367,123.483 885,123.5C 886.227,119.409 885.394,115.909 882.5,113C 884.371,110.961 886.038,109.461 887.5,108.5C 886.147,107.315 884.98,105.981 884,104.5C 879.607,105.898 874.774,106.731 869.5,107C 867.068,108.087 867.402,108.587 870.5,108.5C 870.5,108.833 870.5,109.167 870.5,109.5C 868.669,110.052 867.003,110.052 865.5,109.5C 862.439,110.81 861.106,113.143 861.5,116.5C 858.365,116.452 856.698,114.785 856.5,111.5C 855.847,115.235 855.014,118.901 854,122.5C 853.107,141.614 853.44,160.614 855,179.5C 854.667,179.833 854.333,180.167 854,180.5C 853.667,179.167 853.333,177.833 853,176.5C 853.155,159.803 852.322,143.469 850.5,127.5C 849.213,102.88 836.213,89.88 811.5,88.5C 806.057,86.7671 800.223,85.7671 794,85.5C 787.412,88.7326 780.412,91.3993 773,93.5C 770.462,92.4726 768.129,91.1393 766,89.5C 763.212,91.9047 763.712,94.0714 767.5,96C 765.888,96.7203 764.388,96.5536 763,95.5C 762.208,93.4127 761.041,91.5793 759.5,90C 761.754,87.2524 763.254,84.0857 764,80.5C 765.684,78.6487 767.517,76.982 769.5,75.5C 770.167,76.1667 770.833,76.8333 771.5,77.5C 772.189,75.6619 772.522,73.9952 772.5,72.5C 773.648,74.1487 774.981,75.6487 776.5,77C 778.614,77.3289 780.28,76.4956 781.5,74.5C 780.5,73.6667 779.5,72.8333 778.5,72C 780.495,70.672 782.161,69.0053 783.5,67C 783.095,66.0546 782.428,65.3879 781.5,65C 783.594,63.6485 785.927,63.1485 788.5,63.5C 788.629,61.7839 788.962,60.1172 789.5,58.5C 825.491,42.1365 858.158,47.1365 887.5,73.5C 913.736,102.694 918.903,135.36 903,171.5C 891.786,192.178 874.953,205.844 852.5,212.5 Z"/></g>
<g><path style="opacity:1" fill="#396680" d="M 286.5,53.5 C 295.833,53.5 305.167,53.5 314.5,53.5C 314.333,77.169 314.5,100.836 315,124.5C 327.5,112.667 340,100.833 352.5,89C 363.848,88.1675 375.181,88.3342 386.5,89.5C 373.833,102.5 361.167,115.5 348.5,128.5C 362.5,146.5 376.5,164.5 390.5,182.5C 390.167,182.833 389.833,183.167 389.5,183.5C 378.213,182.688 366.879,182.188 355.5,182C 346.332,170.126 336.832,158.626 327,147.5C 322.712,150.785 318.712,154.452 315,158.5C 314.5,166.493 314.334,174.493 314.5,182.5C 305.167,182.5 295.833,182.5 286.5,182.5C 286.5,139.5 286.5,96.5 286.5,53.5 Z"/></g>
<g><path style="opacity:1" fill="#f67319" d="M 90.5,60.5 C 101.172,60.3335 111.839,60.5002 122.5,61C 129.354,77.2098 136.354,93.3764 143.5,109.5C 136.519,117.649 129.352,125.649 122,133.5C 111.397,109.184 100.897,84.8503 90.5,60.5 Z"/></g>
<g><path style="opacity:1" fill="#3a6680" d="M 748.5,104.5 C 747.596,105.209 747.263,106.209 747.5,107.5C 746.833,109.167 746.167,110.833 745.5,112.5C 738.5,112.5 731.5,112.5 724.5,112.5C 724.049,127.572 724.549,142.572 726,157.5C 728.642,160.071 731.808,161.404 735.5,161.5C 739.493,160.505 743.493,159.505 747.5,158.5C 747.263,159.791 747.596,160.791 748.5,161.5C 748.328,162.492 748.662,163.158 749.5,163.5C 749.263,164.791 749.596,165.791 750.5,166.5C 751.687,170.499 752.52,174.499 753,178.5C 737.205,186.892 721.705,186.392 706.5,177C 700.533,171.436 697.033,164.602 696,156.5C 695.5,141.837 695.333,127.17 695.5,112.5C 690.833,112.5 686.167,112.5 681.5,112.5C 681.5,105.167 681.5,97.8333 681.5,90.5C 686.167,90.5 690.833,90.5 695.5,90.5C 695.5,82.8333 695.5,75.1667 695.5,67.5C 705.167,67.5 714.833,67.5 724.5,67.5C 724.5,75.1667 724.5,82.8333 724.5,90.5C 732.167,90.5 739.833,90.5 747.5,90.5C 747.353,95.2142 747.686,99.8809 748.5,104.5 Z"/></g>
<g><path style="opacity:1" fill="#3a6680" d="M 624.5,86.5 C 660.133,88.8007 677.133,107.801 675.5,143.5C 651.831,143.333 628.164,143.5 604.5,144C 608.293,154.745 615.96,160.412 627.5,161C 637.079,162.14 645.413,159.473 652.5,153C 653.5,152.333 654.5,152.333 655.5,153C 659.982,158.316 664.648,163.483 669.5,168.5C 658.716,179.878 645.383,185.211 629.5,184.5C 611.596,184.484 596.762,177.817 585,164.5C 576.92,152.332 574.254,138.999 577,124.5C 584.1,100.898 599.934,88.2315 624.5,86.5 Z M 623.5,108.5 C 636.147,107.98 644.48,113.647 648.5,125.5C 633.833,126.833 619.167,126.833 604.5,125.5C 607.43,115.897 613.763,110.231 623.5,108.5 Z"/></g>
<g><path style="opacity:1" fill="#3a667f" d="M 435.5,86.5 C 448.551,85.9469 460.551,89.1136 471.5,96C 480.207,103.432 484.707,112.932 485,124.5C 485.5,143.83 485.667,163.164 485.5,182.5C 476.5,182.5 467.5,182.5 458.5,182.5C 458.665,179.482 458.498,176.482 458,173.5C 450.374,181.269 441.041,184.935 430,184.5C 417.433,184.65 407.1,179.983 399,170.5C 391.039,153.874 394.873,140.708 410.5,131C 416.6,128.558 422.933,127.225 429.5,127C 438.494,126.5 447.494,126.334 456.5,126.5C 454.682,114.7 447.682,109.033 435.5,109.5C 425.714,109.818 416.881,112.818 409,118.5C 405.159,112.822 401.826,106.822 399,100.5C 398.251,99.365 398.417,98.365 399.5,97.5C 410.864,91.332 422.864,87.6654 435.5,86.5 Z M 438.5,143.5 C 444.5,143.5 450.5,143.5 456.5,143.5C 457.482,157.354 450.982,164.354 437,164.5C 425.341,164.698 421.174,159.365 424.5,148.5C 425.5,147.667 426.5,146.833 427.5,146C 431.28,145.082 434.946,144.249 438.5,143.5 Z"/></g>
<g><path style="opacity:1" fill="#f1751f" d="M 789.5,58.5 C 788.962,60.1172 788.629,61.7839 788.5,63.5C 785.927,63.1485 783.594,63.6485 781.5,65C 782.428,65.3879 783.095,66.0546 783.5,67C 782.161,69.0053 780.495,70.672 778.5,72C 779.5,72.8333 780.5,73.6667 781.5,74.5C 780.28,76.4956 778.614,77.3289 776.5,77C 774.981,75.6487 773.648,74.1487 772.5,72.5C 772.522,73.9952 772.189,75.6619 771.5,77.5C 770.833,76.8333 770.167,76.1667 769.5,75.5C 767.517,76.982 765.684,78.6487 764,80.5C 763.254,84.0857 761.754,87.2524 759.5,90C 761.041,91.5793 762.208,93.4127 763,95.5C 764.388,96.5536 765.888,96.7203 767.5,96C 763.712,94.0714 763.212,91.9047 766,89.5C 768.129,91.1393 770.462,92.4726 773,93.5C 780.412,91.3993 787.412,88.7326 794,85.5C 800.223,85.7671 806.057,86.7671 811.5,88.5C 796.006,87.6658 781.506,90.9991 768,98.5C 767.616,100.197 767.782,101.863 768.5,103.5C 765.675,103.081 763.509,104.081 762,106.5C 760.701,105.91 759.868,104.91 759.5,103.5C 760.066,101.303 760.732,99.1364 761.5,97C 758.285,89.9875 756.952,89.9875 757.5,97C 756.379,99.29 755.045,101.457 753.5,103.5C 756.023,106.69 755.023,108.023 750.5,107.5C 750.433,109.401 750.767,111.234 751.5,113C 748.254,117.509 746.42,122.342 746,127.5C 745.617,128.056 745.117,128.389 744.5,128.5C 744.607,123.415 745.274,118.415 746.5,113.5C 746.376,112.893 746.043,112.56 745.5,112.5C 746.167,110.833 746.833,109.167 747.5,107.5C 748.404,106.791 748.737,105.791 748.5,104.5C 756.49,84.1728 770.157,68.8395 789.5,58.5 Z"/></g>
<g><path style="opacity:1" fill="#3a667f" d="M 563.5,86.5 C 564.833,86.5 566.167,86.5 567.5,86.5C 567.5,95.5 567.5,104.5 567.5,113.5C 557.11,111.425 548.277,114.091 541,121.5C 540,123.5 539,125.5 538,127.5C 536.567,145.786 536.067,164.12 536.5,182.5C 526.833,182.5 517.167,182.5 507.5,182.5C 507.5,151.167 507.5,119.833 507.5,88.5C 516.833,88.5 526.167,88.5 535.5,88.5C 535.335,91.8499 535.502,95.1832 536,98.5C 543.763,91.0858 552.93,87.0858 563.5,86.5 Z"/></g>
<g><path style="opacity:1" fill="#396680" d="M 234.5,88.5 C 243.833,88.5 253.167,88.5 262.5,88.5C 262.5,119.833 262.5,151.167 262.5,182.5C 253.167,182.5 243.833,182.5 234.5,182.5C 234.5,151.167 234.5,119.833 234.5,88.5 Z"/></g>
<g><path style="opacity:1" fill="#f67318" d="M 195.5,60.5 C 205.167,60.5 214.833,60.5 224.5,60.5C 207.954,101.126 190.621,141.459 172.5,181.5C 162.522,182.499 152.522,182.832 142.5,182.5C 139.738,174.303 136.404,166.303 132.5,158.5C 139.481,150.351 146.648,142.351 154,134.5C 155.393,138.286 157.059,141.952 159,145.5C 171.164,117.171 183.331,88.8378 195.5,60.5 Z"/></g>
<g><path style="opacity:0.931" fill="#e68339" d="M 822.5,118.5 C 819.588,115.419 816.254,112.919 812.5,111C 805.174,110.5 797.841,110.334 790.5,110.5C 799.076,107.787 807.743,107.954 816.5,111C 819.118,113.106 821.118,115.606 822.5,118.5 Z"/></g>
<g><path style="opacity:1" fill="#f4741e" d="M 823.5,172.5 C 823.811,171.522 824.478,170.855 825.5,170.5C 826.489,174.107 826.823,177.774 826.5,181.5C 834.5,181.5 842.5,181.5 850.5,181.5C 850.5,163.5 850.5,145.5 850.5,127.5C 852.322,143.469 853.155,159.803 853,176.5C 853.333,177.833 853.667,179.167 854,180.5C 854.333,180.167 854.667,179.833 855,179.5C 853.44,160.614 853.107,141.614 854,122.5C 855.014,118.901 855.847,115.235 856.5,111.5C 856.698,114.785 858.365,116.452 861.5,116.5C 861.106,113.143 862.439,110.81 865.5,109.5C 867.003,110.052 868.669,110.052 870.5,109.5C 873.167,109.167 873.167,108.833 870.5,108.5C 867.402,108.587 867.068,108.087 869.5,107C 874.774,106.731 879.607,105.898 884,104.5C 884.98,105.981 886.147,107.315 887.5,108.5C 886.038,109.461 884.371,110.961 882.5,113C 885.394,115.909 886.227,119.409 885,123.5C 881.367,123.483 877.533,123.65 873.5,124C 869.483,125.661 869.65,126.828 874,127.5C 877.458,126.714 880.958,126.38 884.5,126.5C 884.238,127.978 884.571,129.311 885.5,130.5C 887.645,131.682 887.645,133.182 885.5,135C 877.89,136.621 877.223,139.121 883.5,142.5C 882.305,146.732 880.639,150.065 878.5,152.5C 878.891,151.282 878.224,150.448 876.5,150C 879.653,147.574 880.486,144.74 879,141.5C 877.984,142.634 877.317,142.301 877,140.5C 874.667,141.833 872.333,141.833 870,140.5C 868.796,141.859 867.296,142.859 865.5,143.5C 866.167,144.5 866.833,145.5 867.5,146.5C 867.154,147.696 866.654,147.696 866,146.5C 865.333,147.5 865.333,148.5 866,149.5C 868.99,150.198 871.823,151.865 874.5,154.5C 878.281,153.609 879.948,155.276 879.5,159.5C 881.144,159.286 882.644,159.62 884,160.5C 884.287,162.891 884.787,165.224 885.5,167.5C 884.208,169.667 883.375,172 883,174.5C 879.716,175.913 879.716,177.246 883,178.5C 884.3,177.548 885.467,177.548 886.5,178.5C 884.995,179.842 884.328,181.508 884.5,183.5C 882.857,183.48 881.524,184.147 880.5,185.5C 879.053,183.834 877.719,182.001 876.5,180C 876.645,179.228 876.978,178.561 877.5,178C 873.623,176.992 869.789,175.825 866,174.5C 863.056,176.385 860.223,178.385 857.5,180.5C 859.743,181.474 862.076,181.808 864.5,181.5C 864.833,184.5 863.5,185.833 860.5,185.5C 860.833,187.5 861.167,189.5 861.5,191.5C 860.167,191.5 858.833,191.5 857.5,191.5C 857.5,189.5 857.5,187.5 857.5,185.5C 856.325,185.281 855.325,185.614 854.5,186.5C 853.974,188.23 852.974,189.564 851.5,190.5C 848.776,188.049 849.109,185.882 852.5,184C 844.167,183.667 835.833,183.333 827.5,183C 826.224,179.353 824.89,175.853 823.5,172.5 Z"/></g>
<g><path style="opacity:1" fill="#f6741b" d="M 798.5,142.5 C 807.167,142.5 815.833,142.5 824.5,142.5C 826.244,157.602 819.411,165.602 804,166.5C 791.085,165.948 786.419,159.614 790,147.5C 792.682,145.415 795.516,143.748 798.5,142.5 Z"/></g>
<g><path style="opacity:0.997" fill="#f5731b" d="M 768.5,103.5 C 771.104,107.645 773.604,111.978 776,116.5C 780.311,113.23 785.144,111.23 790.5,110.5C 797.841,110.334 805.174,110.5 812.5,111C 816.254,112.919 819.588,115.419 822.5,118.5C 824.175,121.507 824.841,124.84 824.5,128.5C 813.162,128.333 801.828,128.5 790.5,129C 766.531,133.101 758.698,146.601 767,169.5C 777.348,180.916 790.182,185.083 805.5,182C 812.441,181.028 818.441,178.195 823.5,173.5C 823.461,174.583 823.127,175.583 822.5,176.5C 820.578,177.711 818.745,179.044 817,180.5C 817.263,181.951 817.096,183.284 816.5,184.5C 815.833,183.833 815.167,183.167 814.5,182.5C 813.169,183.166 811.669,183.166 810,182.5C 807.914,183.418 805.747,184.085 803.5,184.5C 803.5,185.5 803.5,186.5 803.5,187.5C 799.227,187.554 795.227,186.554 791.5,184.5C 788.645,185.117 785.978,186.117 783.5,187.5C 781.945,187.278 780.611,186.611 779.5,185.5C 779.167,185.833 778.833,186.167 778.5,186.5C 779.85,188.386 781.517,189.886 783.5,191C 781.579,192.241 781.246,193.741 782.5,195.5C 786.256,197.404 790.256,198.571 794.5,199C 795.26,200.441 795.926,201.941 796.5,203.5C 793.612,204.06 791.279,202.893 789.5,200C 787.866,199.506 786.199,199.34 784.5,199.5C 784.5,200.5 784.5,201.5 784.5,202.5C 789.099,204.955 793.433,207.622 797.5,210.5C 776.032,202.032 760.365,187.365 750.5,166.5C 750.737,165.209 750.404,164.209 749.5,163.5C 749.672,162.508 749.338,161.842 748.5,161.5C 748.737,160.209 748.404,159.209 747.5,158.5C 745.092,148.654 744.092,138.654 744.5,128.5C 745.117,128.389 745.617,128.056 746,127.5C 746.42,122.342 748.254,117.509 751.5,113C 750.767,111.234 750.433,109.401 750.5,107.5C 755.023,108.023 756.023,106.69 753.5,103.5C 755.045,101.457 756.379,99.29 757.5,97C 756.952,89.9875 758.285,89.9875 761.5,97C 760.732,99.1364 760.066,101.303 759.5,103.5C 759.868,104.91 760.701,105.91 762,106.5C 763.509,104.081 765.675,103.081 768.5,103.5 Z"/></g>
<g><path style="opacity:1" fill="#e8792e" d="M 852.5,212.5 C 844.735,215.445 836.568,216.779 828,216.5C 819.432,216.779 811.265,215.445 803.5,212.5C 810.653,213.937 818.653,214.604 827.5,214.5C 832.167,214.167 836.833,213.833 841.5,213.5C 841.808,212.692 842.308,212.025 843,211.5C 846.057,212.451 849.223,212.784 852.5,212.5 Z"/></g>
</svg>
